<?xml version="1.0" standalone="no"?>
<!DOCTYPE svg PUBLIC "-//W3C//DTD SVG 20010904//EN"
 "http://www.w3.org/TR/2001/REC-SVG-20010904/DTD/svg10.dtd">
<svg version="1.0" xmlns="http://www.w3.org/2000/svg"
 width="260.000000pt" height="260.000000pt" viewBox="0 0 260.000000 260.000000"
 preserveAspectRatio="xMidYMid meet">
<metadata>
Created by potrace 1.11, written by Peter Selinger 2001-2013
</metadata>
<g transform="translate(0.000000,260.000000) scale(0.100000,-0.100000)"
fill="#000000" stroke="none">
<path d="M2173 2590 c-41 -17 -167 -107 -212 -151 -143 -143 -250 -419 -311
-804 -37 -228 -21 -329 69 -428 55 -61 102 -80 208 -85 155 -7 253 39 365 172
105 125 179 304 214 516 26 158 19 669 -10 697 -22 22 -75 -104 -100 -237 -9
-45 -16 -123 -16 -172 0 -98 -12 -154 -67 -323 -76 -234 -177 -410 -257 -446
-92 -42 -187 -13 -215 66 -61 168 65 628 246 905 62 94 103 130 149 130 106 0
175 96 108 149 -21 16 -40 21 -88 20 -33 0 -71 -4 -83 -9z"/>
<path d="M1262 2529 c-93 -48 -187 -131 -236 -207 -137 -211 -217 -460 -261
-807 -18 -144 -15 -187 19 -260 46 -98 125 -157 238 -174 159 -26 300 41 416
196 129 171 191 363 212 653 10 135 -1 485 -16 524 -11 29 -35 16 -55 -30 -39
-93 -61 -198 -69 -344 -6 -91 -16 -171 -29 -215 -59 -208 -145 -410 -216 -506
-42 -58 -102 -89 -173 -89 -105 0 -151 85 -138 255 18 232 154 594 296 787 41
56 55 68 85 72 19 4 51 8 70 11 73 12 116 87 77 135 -17 20 -30 25 -88 28 -62
3 -75 0 -132 -29z"/>
<path d="M685 2424 c-16 -8 -41 -27 -55 -42 -14 -15 -117 -99 -230 -186 -113
-87 -211 -165 -218 -174 -16 -21 -15 -57 3 -92 14 -27 21 -30 61 -30 54 0 80
13 196 97 50 35 92 63 94 60 8 -8 -69 -216 -219 -587 -85 -212 -167 -422 -181
-467 -46 -147 -50 -332 -11 -460 9 -29 20 -53 25 -53 5 0 14 26 20 57 23 115
89 360 123 453 50 139 101 256 230 525 136 285 337 779 337 828 0 20 -9 46
-21 61 -17 22 -28 26 -72 26 -29 0 -65 -7 -82 -16z"/>
<path d="M1600 905 c-181 -19 -288 -37 -595 -101 -378 -79 -375 -78 -375 -172
0 -96 35 -101 298 -43 249 55 463 97 629 121 154 22 447 50 531 50 125 0 47
96 -108 134 -96 23 -228 27 -380 11z"/>
<path d="M1765 453 c-237 -10 -628 -57 -855 -104 -304 -63 -683 -170 -721
-205 -24 -22 -25 -76 -2 -115 24 -40 47 -38 261 15 541 136 1044 218 1447 236
186 9 371 32 406 51 11 5 16 16 12 25 -7 19 -84 58 -146 73 -47 11 -272 32
-312 29 -11 -1 -51 -3 -90 -5z"/>
</g>
</svg>
