<!-- Generator: Adobe Illustrator 22.1.0, SVG Export Plug-In  -->
<svg version="1.1"
	 xmlns="http://www.w3.org/2000/svg"
     xmlns:xlink="http://www.w3.org/1999/xlink"
     xmlns:a="http://ns.adobe.com/AdobeSVGViewerExtensions/3.0/"
	 x="0px" y="0px" height="18px" 
     viewBox="0 0 7.7 8.2"
     style="enable-background:new 0 0 7.7 8.2;"
	 xml:space="preserve">
<defs>
</defs>
<g>
	<g>
		<g>
			<path d="M4.5,1.6c0-0.3,0-0.5,0.1-0.8c0-0.1,0.1-0.2,0.1-0.4c0,0,0.1-0.1,0.1-0.1c0,0,0.1,0.1,0.1,0.1c0,0.2,0,0.4,0,0.6
				c0,0.2,0,0.3,0,0.5c0,0.2,0,0.5,0,0.7c0,0.4-0.1,0.8-0.3,1.1C4.5,3.8,4.4,4,4.2,4.3C4,4.5,3.9,4.6,3.6,4.7
				C3.5,4.8,3.4,4.8,3.3,4.8C3,4.9,2.8,4.8,2.6,4.7C2.4,4.6,2.2,4.4,2.1,4.2C2,3.9,2.1,3.7,2.1,3.4c0-0.1,0-0.2,0-0.3
				c0-0.3,0.1-0.5,0.2-0.8c0.1-0.4,0.2-0.8,0.5-1.2C2.9,1,3,0.7,3.2,0.6c0.2-0.2,0.4-0.4,0.7-0.4c0.1,0,0.3,0,0.4,0
				c0.2,0.1,0.1,0.3,0,0.4c-0.1,0-0.2,0.1-0.2,0.1C3.9,0.6,3.7,0.8,3.6,1C3.5,1.2,3.3,1.5,3.2,1.8C3.1,2,3,2.2,2.9,2.4
				C2.9,2.7,2.8,2.9,2.7,3.1c0,0.2,0,0.4,0,0.6c0,0.2,0.1,0.4,0.2,0.5c0.1,0.1,0.4,0,0.6,0C3.7,4,3.7,3.9,3.8,3.8
				C4.1,3.4,4.2,3,4.3,2.6C4.4,2.3,4.5,2,4.5,1.6z"/>
			<path d="M7.6,0.3c0,0.1,0.1,0.2,0.1,0.3c0,0.3,0,0.5,0,0.8c0,0.1,0,0.1,0,0.2c0,0.1,0,0.1,0,0.2c0,0.1,0,0.2,0,0.3
				c0,0.3-0.1,0.6-0.1,0.8C7.5,3.2,7.4,3.4,7.3,3.7C7.1,4,6.9,4.2,6.7,4.4C6.5,4.6,6.2,4.7,5.9,4.7c-0.2,0-0.4,0-0.6-0.1
				C5.2,4.5,5.1,4.4,5.1,4.3C4.9,4.1,4.8,3.7,4.9,3.4C4.9,3.2,4.9,3,5,2.7C5,2.5,5.1,2.2,5.2,2c0-0.2,0.1-0.3,0.2-0.5
				C5.4,1.3,5.6,1,5.7,0.8C5.8,0.6,6,0.4,6.2,0.3C6.3,0.2,6.5,0.1,6.6,0C6.8,0,6.9,0,7.1,0.1c0.1,0,0.1,0.1,0.1,0.2
				c0,0.1-0.1,0.2-0.2,0.2c0,0-0.1,0-0.2,0c-0.2,0-0.3,0.1-0.4,0.2C6.2,1,6.1,1.3,6,1.6C5.8,1.9,5.7,2.1,5.6,2.4
				C5.6,2.6,5.6,2.8,5.5,3c0,0.2-0.1,0.3-0.1,0.5c0,0.2,0,0.3,0.1,0.4C5.7,4.1,6,4.1,6.2,4C6.4,4,6.5,3.9,6.5,3.7
				C6.8,3.4,6.9,3,7,2.6c0.1-0.2,0.1-0.4,0.2-0.6c0-0.2,0-0.3,0-0.5c0-0.3,0.1-0.6,0.2-0.9C7.5,0.4,7.5,0.3,7.6,0.3z"/>
			<path d="M0.2,6.7c0-0.1-0.1-0.2-0.1-0.3C0,6.2,0,6,0,5.9c0-0.1,0-0.3,0.1-0.4c0-0.3,0.1-0.5,0.2-0.7c0.1-0.2,0.1-0.4,0.2-0.6
				c0.1-0.2,0.2-0.5,0.3-0.7C0.8,3.3,0.9,3.1,1,2.9c0.1-0.3,0.2-0.6,0.4-1c0-0.1,0-0.1,0.1-0.2c0,0,0,0,0,0c-0.1,0-0.1,0.1-0.2,0.1
				C1,2,0.9,2.1,0.7,2.2c-0.1,0-0.2,0-0.3,0C0.3,2.2,0.3,2.1,0.3,2c0-0.1,0-0.2,0.1-0.2c0.1-0.1,0.3-0.2,0.4-0.3
				C0.9,1.4,1,1.2,1.2,1.1C1.3,1,1.4,0.9,1.6,0.8c0.1-0.1,0.2-0.2,0.3-0.3c0.1-0.1,0.4-0.1,0.5,0c0.1,0.1,0.1,0.3,0,0.4
				C2.2,1.4,2.1,1.8,1.9,2.1C1.8,2.4,1.7,2.6,1.6,2.9C1.4,3.3,1.2,3.7,1,4.2C0.8,4.6,0.6,5,0.5,5.4C0.4,5.7,0.3,6.1,0.3,6.4
				C0.2,6.5,0.2,6.6,0.2,6.7C0.2,6.7,0.2,6.7,0.2,6.7z"/>
			<path d="M7,7.2c-0.1,0-0.2,0.1-0.3,0.1c-0.2,0-0.4,0.1-0.7,0.1c-0.1,0-0.3,0-0.4,0c-0.2,0-0.4,0-0.6,0c-0.2,0-0.4,0-0.5,0.1
				C4.2,7.5,4,7.5,3.7,7.6c-0.2,0-0.3,0-0.5,0.1C3,7.7,2.8,7.7,2.6,7.7c-0.2,0-0.3,0.1-0.5,0.1c-0.1,0-0.2,0-0.3,0.1
				C1.6,8,1.4,8,1.2,8.1C1,8.1,0.8,8.2,0.6,8.2c-0.1,0-0.3,0-0.3-0.2c-0.1-0.2,0-0.3,0.2-0.4c0.2-0.1,0.5-0.2,0.7-0.2
				c0.2-0.1,0.4-0.1,0.7-0.2C2,7.3,2.2,7.2,2.4,7.2c0.2,0,0.4-0.1,0.5-0.1C3.1,7,3.3,7,3.4,7c0.1,0,0.2,0,0.2,0c0.1,0,0.3,0,0.4,0
				c0.2,0,0.3,0,0.5-0.1c0,0,0,0,0,0c0.2,0,0.5,0,0.7,0c0.1,0,0.2,0,0.3,0c0.2,0,0.5,0,0.7,0.1c0.1,0,0.3,0,0.4,0.1
				C6.8,7,6.9,7,7,7.2z"/>
			<path d="M6.2,5.8c-0.2,0-0.4,0-0.6,0c-0.2,0-0.4,0-0.6,0.1C4.9,5.9,4.7,6,4.5,6C4.3,6,4.2,6.1,4,6.1c-0.1,0-0.3,0-0.4,0.1
				c-0.1,0-0.3,0.1-0.4,0.1c-0.1,0-0.2,0-0.4,0.1c-0.2,0-0.3,0.1-0.5,0.1c-0.2,0-0.3,0-0.5,0.1c-0.1,0-0.2-0.1-0.2-0.2c0,0,0,0,0,0
				c0-0.4,0-0.3,0.4-0.4c0.2-0.1,0.5-0.1,0.7-0.2c0.2,0,0.4-0.1,0.5-0.1c0.2,0,0.5-0.1,0.7-0.2c0.1,0,0.2,0,0.3,0
				c0.3,0,0.5,0,0.8-0.1c0.2-0.1,0.5,0,0.7,0c0.2,0,0.3,0.1,0.4,0.1c0.1,0,0.2,0.1,0.2,0.2c0.1,0.1,0,0.1-0.1,0.1
				C6.3,5.8,6.3,5.8,6.2,5.8z"/>
		</g>
	</g>
</g>
</svg>
