<!-- Generator: Adobe Illustrator 22.1.0, SVG Export Plug-In  -->
<svg version="1.1"
	 xmlns="http://www.w3.org/2000/svg"
	 xmlns:xlink="http://www.w3.org/1999/xlink"
	 xmlns:a="http://ns.adobe.com/AdobeSVGViewerExtensions/3.0/"
	 x="0px" y="0px"
	 height="16px"
	 viewBox="0 0 83.4 20.6" style="enable-background:new 0 0 83.4 20.6;"
	 xml:space="preserve">
<defs>
</defs>
<g>
	<path d="M3.9,0.8v15.6h8.9v3.9H0V0.8H3.9z"/>
	<path d="M16.6,0c1.3,0,2.4,1,2.4,2.4s-1,2.3-2.4,2.3c-1.3,0-2.3-1-2.3-2.3S15.2,0,16.6,0z M18.4,6.4v13.9h-3.7V6.4H18.4z"/>
	<path d="M28.8,6c3.3,0,4.9,2.1,4.9,5.6v8.6H30v-7.7c0-2.1-1-3-2.5-3c-2.1,0-3,1.6-3,4.1v6.7h-3.7V6.4h3.6v2C25.3,7,26.8,6,28.8,6z"
		/>
	<path d="M42.5,6c2.2,0,4,0.8,5.3,2l-2.1,3c-0.8-0.8-1.8-1.4-3.2-1.4c-2.1,0-3.7,1.5-3.7,3.7s1.6,3.7,3.7,3.7c1.4,0,2.5-0.6,3.3-1.4
		l2,3c-1.2,1.2-3,2.1-5.4,2.1c-4.3,0-7.4-2.9-7.4-7.3C35.1,8.9,38.2,6,42.5,6z"/>
	<path d="M55.8,6c4.3,0,7.5,3,7.5,7.3c0,4.3-3.2,7.3-7.5,7.3c-4.3,0-7.5-3-7.5-7.3C48.3,9,51.5,6,55.8,6z M55.8,9.6
		c-2.1,0-3.7,1.5-3.7,3.7s1.6,3.7,3.7,3.7c2.1,0,3.7-1.5,3.7-3.7S57.9,9.6,55.8,9.6z"/>
	<path d="M68.3,0.8v19.5h-3.7V0.8H68.3z"/>
	<path d="M78.5,6c3.3,0,4.9,2.1,4.9,5.6v8.6h-3.8v-7.7c0-2.1-1-3-2.5-3c-2.1,0-3,1.6-3,4.1v6.7h-3.7V6.4H74v2C74.9,7,76.4,6,78.5,6z
		"/>
</g>
</svg>
